<svg width="214" height="230" viewBox="0 0 214 230" fill="none" xmlns="http://www.w3.org/2000/svg">
<path d="M106.656 91.5791V228.949L0 182.881L0.508825 46.0078L106.656 91.5791Z" fill="#418DF9"/>
<path d="M106.658 91.661V229.031L212.795 184.554V46.4463L106.658 91.661Z" fill="#A2BDFF"/>
<path d="M106.656 91.5793L213.312 46.9065L107.494 0L0 45.7896L106.656 91.5793Z" fill="#699CFF"/>
<path d="M40.2056 28.6629L146.455 74.9093L147.42 108.611L177.148 96.3443L176.249 62.4304L66.8558 17.3105L40.2056 28.6629Z" fill="#418DF9"/>
<path d="M140.405 140.948C142.089 140.948 143.454 138.456 143.454 135.383C143.454 132.309 142.089 129.817 140.405 129.817C138.721 129.817 137.355 132.309 137.355 135.383C137.355 138.456 138.721 140.948 140.405 140.948Z" fill="white"/>
<path d="M189.526 120.934C191.21 120.934 192.575 118.443 192.575 115.369C192.575 112.295 191.21 109.804 189.526 109.804C187.842 109.804 186.477 112.295 186.477 115.369C186.477 118.443 187.842 120.934 189.526 120.934Z" fill="white"/>
<path d="M158.073 170.328L156.093 169.559C160.48 158.265 165.981 152.043 172.443 151.066C178.626 150.132 183.834 154.391 185.723 156.774L184.059 158.093C182.752 156.445 178.177 152.348 172.761 153.166C167.185 154.009 162.106 159.943 158.073 170.328Z" fill="white"/>
</svg>
